<?xml version="1.0" encoding="UTF-8" standalone="no"?>
<svg width="133px" height="27px" viewBox="0 0 133 27" version="1.1" xmlns="http://www.w3.org/2000/svg" xmlns:xlink="http://www.w3.org/1999/xlink">
    <!-- Generator: Sketch 3.7.1 (28215) - http://www.bohemiancoding.com/sketch -->
    <title>Group 11</title>
    <desc>Created with Sketch.</desc>
    <defs></defs>
    <g id="Catonaut" stroke="none" stroke-width="1" fill="none" fill-rule="evenodd">
        <g id="Group-11">
            <g id="Group-10">
                <rect id="Rectangle-1" fill="#37A5D9" x="0" y="0" width="16" height="27" rx="8"></rect>
                <ellipse id="Oval-34" fill-opacity="0.9" fill="#E88888" cx="8.5" cy="5.8125" rx="5.5" ry="4.8125"></ellipse>
                <ellipse id="Oval-34" fill="#E45454" cx="8" cy="5.5" rx="4" ry="3.5"></ellipse>
            </g>
            <g id="Group-10" transform="translate(117.000000, 0.000000)">
                <rect id="Rectangle-1" fill="#37A5D9" x="0" y="0" width="16" height="27" rx="8"></rect>
                <ellipse id="Oval-34" fill-opacity="0.9" fill="#E88888" cx="8.5" cy="5.8125" rx="5.5" ry="4.8125"></ellipse>
                <ellipse id="Oval-34" fill="#E45454" cx="8" cy="5.5" rx="4" ry="3.5"></ellipse>
            </g>
            <path d="M9.8481645,9.23669829 C13.4956294,3.76749571 31.8073921,5.49474862 31.8073921,5.49474862 L37.8063021,14.2734402 L34.8659987,20.2890451 L27.6694335,11.538839 L17.1909474,14.7059009 L12.6382625,17.8755523 C12.6382625,17.8755523 9.68466662,23.6969382 7.93935997,19.2014196 C6.19405333,14.705901 6.20069959,14.7059009 9.8481645,9.23669829 Z" id="Path-34" fill="#37A5D9" transform="translate(22.306302, 13.070664) rotate(-22.000000) translate(-22.306302, -13.070664) "></path>
            <path d="M104.528445,10.7576921 C108.17591,5.28848949 126.487673,7.0157424 126.487673,7.0157424 L129.705031,14.6706142 L126.764728,20.6862191 L122.349714,13.0598327 L111.871228,16.2268946 L107.318543,19.3965461 C107.318543,19.3965461 104.364947,25.217932 102.619641,20.7224134 C100.874334,16.2268948 100.88098,16.2268947 104.528445,10.7576921 Z" id="Path-34" fill="#37A5D9" transform="translate(115.595807, 14.591658) scale(-1, 1) rotate(-22.000000) translate(-115.595807, -14.591658) "></path>
        </g>
    </g>
</svg>