<?xml version="1.0" encoding="UTF-8" standalone="no"?>
<svg width="74px" height="31px" viewBox="0 0 74 31" version="1.1" xmlns="http://www.w3.org/2000/svg" xmlns:xlink="http://www.w3.org/1999/xlink">
    <!-- Generator: Sketch 3.7.1 (28215) - http://www.bohemiancoding.com/sketch -->
    <title>Group 11</title>
    <desc>Created with Sketch.</desc>
    <defs>
        <rect id="path-1" x="16" y="5" width="8" height="7"></rect>
        <mask id="mask-2" maskContentUnits="userSpaceOnUse" maskUnits="objectBoundingBox" x="0" y="0" width="8" height="7" fill="white">
            <use xlink:href="#path-1"></use>
        </mask>
        <rect id="path-3" x="28" y="5" width="8" height="7"></rect>
        <mask id="mask-4" maskContentUnits="userSpaceOnUse" maskUnits="objectBoundingBox" x="0" y="0" width="8" height="7" fill="white">
            <use xlink:href="#path-3"></use>
        </mask>
        <rect id="path-5" x="40" y="5" width="8" height="7"></rect>
        <mask id="mask-6" maskContentUnits="userSpaceOnUse" maskUnits="objectBoundingBox" x="0" y="0" width="8" height="7" fill="white">
            <use xlink:href="#path-5"></use>
        </mask>
        <rect id="path-7" x="28" y="13" width="8" height="7"></rect>
        <mask id="mask-8" maskContentUnits="userSpaceOnUse" maskUnits="objectBoundingBox" x="0" y="0" width="8" height="7" fill="white">
            <use xlink:href="#path-7"></use>
        </mask>
    </defs>
    <g id="Catonaut" stroke="none" stroke-width="1" fill="none" fill-rule="evenodd">
        <g id="Group-11" transform="translate(1.000000, 1.000000)">
            <path d="M19.7470941,6.51319634 C26.9506571,9.57912554 47.616064,7.40428542 47.616064,7.40428542 L71.5064575,3.69482223e-13 L72,23.0646911 L52.0646889,29 C41.8466687,28.7646565 17.6758338,27.2972744 17.6758338,27.2972744 C17.6758338,27.2972744 1.27705013e-09,27.3823269 -2.84217094e-13,20.1977022 C-1.27775593e-09,13.0130775 3.94294614,1.05595473 3.94294614,1.05595473 C3.94294614,1.05595473 12.5435311,3.46198162 19.7470941,6.51319634 Z" id="Path-36" stroke="#37A5D9" fill="#37A5D9" transform="translate(36.000000, 14.500000) rotate(-180.000000) translate(-36.000000, -14.500000) "></path>
            <ellipse id="Oval-34" fill-opacity="0.9" fill="#E88888" cx="8.5" cy="11.8125" rx="5.5" ry="4.8125"></ellipse>
            <ellipse id="Oval-34" fill="#E45454" cx="9" cy="11.5" rx="4" ry="3.5"></ellipse>
            <ellipse id="Oval-34" fill-opacity="0.9" fill="#E88888" cx="57.5" cy="9.8125" rx="5.5" ry="4.8125"></ellipse>
            <ellipse id="Oval-34" fill="#E45454" cx="58" cy="9.5" rx="4" ry="3.5"></ellipse>
            <polygon id="Star-1" fill="#F9E14F" points="67.2797543 11.75 64.6347207 13.1405765 65.1398772 10.1952882 63 8.10942353 65.9572375 7.67971176 67.2797543 5 68.6022711 7.67971176 71.5595086 8.10942353 69.4196315 10.1952882 69.924788 13.1405765"></polygon>
            <use id="Rectangle-3" stroke="#979797" mask="url(#mask-2)" stroke-width="2" fill="#D8D8D8" xlink:href="#path-1"></use>
            <use id="Rectangle-3" stroke="#979797" mask="url(#mask-4)" stroke-width="2" fill="#D8D8D8" xlink:href="#path-3"></use>
            <use id="Rectangle-3" stroke="#979797" mask="url(#mask-6)" stroke-width="2" fill="#D8D8D8" xlink:href="#path-5"></use>
            <use id="Rectangle-3" stroke="#979797" mask="url(#mask-8)" stroke-width="2" fill="#D8D8D8" xlink:href="#path-7"></use>
        </g>
    </g>
</svg>