<?xml version="1.0" encoding="UTF-8" standalone="no"?>
<svg width="85px" height="79px" viewBox="0 0 85 79" version="1.1" xmlns="http://www.w3.org/2000/svg" xmlns:xlink="http://www.w3.org/1999/xlink">
    <!-- Generator: Sketch 3.7.1 (28215) - http://www.bohemiancoding.com/sketch -->
    <title>Group 8</title>
    <desc>Created with Sketch.</desc>
    <defs></defs>
    <g id="Catonaut" stroke="none" stroke-width="1" fill="none" fill-rule="evenodd">
        <g id="Group-8" transform="translate(0.000000, -3.000000)">
            <polygon id="Path-20" fill="#F9E24F" points="0 15.7217363 22.8795024 36.0559752 29.9919414 24.6755268 7.77659184 4"></polygon>
            <polygon id="Path-20" fill="#F9E24F" transform="translate(71.412109, 18.515625) rotate(-260.000000) translate(-71.412109, -18.515625) " points="55.8007813 15.1640625 79.6191406 30.9902344 87.0234375 22.1328125 63.8964844 6.04101562"></polygon>
            <polygon id="Path-20" fill="#37A5D9" transform="translate(23.628110, 62.731248) rotate(-276.000000) translate(-23.628110, -62.731248) " points="6.26240418 57.4272009 23.0923631 73.4346644 40.9938152 75.5317999 15.3025567 49.9306966"></polygon>
            <polygon id="Path-20" fill="#F9E24F" transform="translate(23.628110, 62.731248) rotate(-276.000000) translate(-23.628110, -62.731248) " points="6.26240418 57.4272009 23.0923631 73.4346644 40.9938152 75.5317999 15.3025567 49.9306966"></polygon>
            <polygon id="Path-20" fill="#F9E24F" transform="translate(64.587096, 58.221165) scale(-1, 1) rotate(-276.000000) translate(-64.587096, -58.221165) " points="44.0870958 50.9531304 63.9546536 72.8878503 85.0870958 75.7615149 54.7588838 40.6808145"></polygon>
            <ellipse id="Oval-27" fill="#F9E24F" cx="44.5" cy="38.5" rx="21.5" ry="20.5"></ellipse>
            <path d="M40.9897168,36.8865884 L31.104468,34.0933474 L23,35.8896862 L29.4301988,37.8739165 L32.5848618,40.6408288 L36.7220658,40.3212935 L41.7376927,41.2404062 L44.0115393,43.3562803 L46.139381,41.1470589 L51.6121707,41.0537115 L55.9791529,42.1990121 L58.6527178,39.5505792 L64.1386719,40.4026733 L58.120159,35.1321363 C58.120159,35.1321363 50.6487778,37.3281934 48.3940794,37.3281934 C46.139381,37.3281934 48.0087222,34 44.1719053,34 C40.3350884,34 40.9897168,36.8865884 40.9897168,36.8865884 Z" id="Path-29" fill="#5E5E5E"></path>
        </g>
    </g>
</svg>