<?xml version="1.0" encoding="UTF-8" standalone="no"?>
<svg width="163px" height="100px" viewBox="0 0 163 100" version="1.1" xmlns="http://www.w3.org/2000/svg" xmlns:xlink="http://www.w3.org/1999/xlink">
    <!-- Generator: Sketch 3.7.1 (28215) - http://www.bohemiancoding.com/sketch -->
    <title>Group 9</title>
    <desc>Created with Sketch.</desc>
    <defs></defs>
    <g id="Catonaut" stroke="none" stroke-width="1" fill="none" fill-rule="evenodd">
        <g id="Group-9">
            <path d="M38.2089844,35.3925781 L52.5351563,6.69335938 L69.4785156,29.8125 C69.4785156,29.8125 81.0020544,28.3023942 88.8417969,27.8125 C91.6706742,27.6357275 101.484375,27.8125 101.484375,27.8125 L116.921875,0 L133.533203,21.6484375 C133.533203,21.6484375 146.376953,40.1738281 150.091797,47.6191406 C153.806641,55.0644531 160.908203,73.3066406 160.908203,73.3066406 C160.908203,73.3066406 163.886719,91.8652344 160.908203,96.5429688 C157.929688,101.220703 128.852885,98.5651653 116.921875,99.3027344 C98.2889931,100.45461 78.1192101,98.1508588 59.4863281,99.3027344 C45.8682615,100.144597 15.9110354,98.4608722 2.29296875,99.3027344 C0.185595919,99.4330111 2.84217094e-14,83.2539062 2.84217094e-14,83.2539062 C2.84217094e-14,83.2539062 4.7734375,52.3554688 13.7636719,47.6191406 C22.7539063,42.8828125 38.2089844,35.3925781 38.2089844,35.3925781 Z" id="Path-28" fill="#4A4949"></path>
            <circle id="Oval-32" fill="#FFFFFF" cx="46" cy="79" r="4"></circle>
            <circle id="Oval-32" fill="#FFFFFF" cx="109" cy="79" r="4"></circle>
        </g>
    </g>
</svg>