<?xml version="1.0" encoding="UTF-8" standalone="no"?>
<svg width="85px" height="79px" viewBox="0 0 85 79" version="1.1" xmlns="http://www.w3.org/2000/svg" xmlns:xlink="http://www.w3.org/1999/xlink">
    <!-- Generator: Sketch 3.7.1 (28215) - http://www.bohemiancoding.com/sketch -->
    <title>Group 8</title>
    <desc>Created with Sketch.</desc>
    <defs></defs>
    <g id="Catonaut" stroke="none" stroke-width="1" fill="none" fill-rule="evenodd">
        <g id="Group-8" transform="translate(0.000000, -3.000000)">
            <polygon id="Path-20" fill="#A0CDF0" points="0 15.7217363 22.8795024 36.0559752 29.9919414 24.6755268 7.77659184 4"></polygon>
            <polygon id="Path-20" fill="#A0CDF0" transform="translate(71.412109, 18.515625) rotate(-260.000000) translate(-71.412109, -18.515625) " points="55.8007813 15.1640625 79.6191406 30.9902344 87.0234375 22.1328125 63.8964844 6.04101562"></polygon>
            <polygon id="Path-20" fill="#37A5D9" transform="translate(23.628110, 62.731248) rotate(-276.000000) translate(-23.628110, -62.731248) " points="6.26240418 57.4272009 23.0923631 73.4346644 40.9938152 75.5317999 15.3025567 49.9306966"></polygon>
            <polygon id="Path-20" fill="#A0CDF0" transform="translate(23.628110, 62.731248) rotate(-276.000000) translate(-23.628110, -62.731248) " points="6.26240418 57.4272009 23.0923631 73.4346644 40.9938152 75.5317999 15.3025567 49.9306966"></polygon>
            <polygon id="Path-20" fill="#A0CDF0" transform="translate(64.587096, 58.221165) scale(-1, 1) rotate(-276.000000) translate(-64.587096, -58.221165) " points="44.0870958 50.9531304 63.9546536 72.8878503 85.0870958 75.7615149 54.7588838 40.6808145"></polygon>
            <ellipse id="Oval-27" fill="#317A9C" cx="44.5" cy="35.5" rx="21.5" ry="20.5"></ellipse>
            <g id="Group-7" transform="translate(35.000000, 19.000000)">
                <polygon id="Path-25" fill="#E45454" points="0 14.5284587 10.630781 0 17.5858064 4.60639643 8.74334243 16.1166054 15.7331635 21.7117388 8.66043142 29.3402397 3.52913845 32 3.52913845 27.2432693 8.21469442 20.9619948"></polygon>
                <polygon id="Path-25" fill="#F8E71C" points="0 16.578125 8.61830357 4 10.828125 6.934375 3.65959821 17.065625 9.85881696 22.4015625 5.83928571 27.7859375 2.86104911 29.9421875 3.71819196 26.0859375 6.65959821 20.99375"></polygon>
            </g>
        </g>
    </g>
</svg>