<?xml version="1.0" encoding="UTF-8" standalone="no"?>
<svg width="130px" height="153px" viewBox="0 0 130 153" version="1.1" xmlns="http://www.w3.org/2000/svg" xmlns:xlink="http://www.w3.org/1999/xlink">
    <!-- Generator: Sketch 3.7.1 (28215) - http://www.bohemiancoding.com/sketch -->
    <title>Group 3</title>
    <desc>Created with Sketch.</desc>
    <defs></defs>
    <g id="Catonaut" stroke="none" stroke-width="1" fill="none" fill-rule="evenodd">
        <g id="Group-3">
            <g id="Group">
                <path d="M13.1855469,112.5802 C5.86914062,130.839966 5,138.982544 5,138.982544 L15.8378906,127.775512 L18.7910156,152.920044 L26.6074219,128.123169 L35.2910156,150.160278 L36.3339844,126.123169 L43.21875,129.728637 L35.2285156,107.775512 C35.2285156,107.775512 20.5019531,94.3204343 13.1855469,112.5802 Z" id="Path-19" fill="#E45454"></path>
                <path d="M22.3652344,0.541774958 C4.47460938,4.01638433 0.869140625,10.8991968 0.869140625,10.8991968 L2.22044605e-16,26.8366968 L0.3046875,54.6765406 L0.8046875,88.0085718 C0.8046875,88.0085718 0.154296875,96.4363062 2.54296875,96.4363062 C4.93164062,96.4363062 16.3378906,97.1296656 16.3378906,97.1296656 L33.2792969,96.9558375 L48.2910156,96.6081812 L48.8125,53.8796656 L48.1386719,26.3210718 L48.6386719,11.4421656 C48.6386719,11.4421656 40.2558594,-2.93283442 22.3652344,0.541774958 Z" id="Path-7" fill="#37A6D9"></path>
                <polygon id="Path-8" stroke="#979797" fill="#D8D8D8" points="13.4433594 97.1132812 7.1484375 102.888672 42.4550781 102.824219 38.8925781 96.8515625"></polygon>
                <polygon id="Path-8" stroke="#979797" fill="#D8D8D8" points="13.2949219 103.261719 7 109.037109 42.3066406 108.972656 38.7441406 103"></polygon>
                <polygon id="Path-8" stroke="#979797" fill="#D8D8D8" points="13.2949219 109.261719 7 115.037109 42.3066406 114.972656 38.7441406 109"></polygon>
                <polygon id="Path-11" fill="#8A8888" points="0.504201836 50.5 48.0432321 50.5 48.8125 55.892567 0 56.5371094"></polygon>
                <polygon id="Path-11" fill="#8A8888" points="0.504201836 63 48.0432321 63 48.8125 68.392567 0 69.0371094"></polygon>
            </g>
            <g id="Group" transform="translate(81.000000, 0.000000)">
                <path d="M13.1855469,112.5802 C5.86914062,130.839966 5,138.982544 5,138.982544 L15.8378906,127.775512 L18.7910156,152.920044 L26.6074219,128.123169 L35.2910156,150.160278 L36.3339844,126.123169 L43.21875,129.728637 L35.2285156,107.775512 C35.2285156,107.775512 20.5019531,94.3204343 13.1855469,112.5802 Z" id="Path-19" fill="#E45454"></path>
                <path d="M22.3652344,0.541774958 C4.47460938,4.01638433 0.869140625,10.8991968 0.869140625,10.8991968 L2.22044605e-16,26.8366968 L0.3046875,54.6765406 L0.8046875,88.0085718 C0.8046875,88.0085718 0.154296875,96.4363062 2.54296875,96.4363062 C4.93164062,96.4363062 16.3378906,97.1296656 16.3378906,97.1296656 L33.2792969,96.9558375 L48.2910156,96.6081812 L48.8125,53.8796656 L48.1386719,26.3210718 L48.6386719,11.4421656 C48.6386719,11.4421656 40.2558594,-2.93283442 22.3652344,0.541774958 Z" id="Path-7" fill="#37A6D9"></path>
                <polygon id="Path-8" stroke="#979797" fill="#D8D8D8" points="13.4433594 97.1132812 7.1484375 102.888672 42.4550781 102.824219 38.8925781 96.8515625"></polygon>
                <polygon id="Path-8" stroke="#979797" fill="#D8D8D8" points="13.2949219 103.261719 7 109.037109 42.3066406 108.972656 38.7441406 103"></polygon>
                <polygon id="Path-8" stroke="#979797" fill="#D8D8D8" points="13.2949219 109.261719 7 115.037109 42.3066406 114.972656 38.7441406 109"></polygon>
                <polygon id="Path-11" fill="#8A8888" points="0.504201836 50.5 48.0432321 50.5 48.8125 55.892567 0 56.5371094"></polygon>
                <polygon id="Path-11" fill="#8A8888" points="0.504201836 63 48.0432321 63 48.8125 68.392567 0 69.0371094"></polygon>
            </g>
        </g>
    </g>
</svg>