<?xml version="1.0" encoding="UTF-8" standalone="no"?>
<svg width="135px" height="140px" viewBox="0 0 135 140" version="1.1" xmlns="http://www.w3.org/2000/svg" xmlns:xlink="http://www.w3.org/1999/xlink">
    <!-- Generator: Sketch 3.7.1 (28215) - http://www.bohemiancoding.com/sketch -->
    <title>Group 3</title>
    <desc>Created with Sketch.</desc>
    <defs></defs>
    <g id="Catonaut" stroke="none" stroke-width="1" fill="none" fill-rule="evenodd">
        <g id="Group-3" transform="translate(-10.000000, 0.000000)">
            <g id="Group-2" transform="translate(32.835938, 115.625000) rotate(-51.000000) translate(-32.835938, -115.625000) translate(7.835938, 94.625000)" stroke="#37A5D9" stroke-opacity="0.92" fill="#37A5D9" fill-opacity="0.74">
                <ellipse id="Oval-4" cx="43.5" cy="23.5" rx="6.5" ry="6.5"></ellipse>
                <ellipse id="Oval-3" cx="34" cy="19.5" rx="10" ry="10.5"></ellipse>
                <ellipse id="Oval-7" cx="23.5" cy="23.5" rx="3.5" ry="3.5"></ellipse>
                <ellipse id="Oval-4" cx="30.5" cy="9.5" rx="6.5" ry="6.5"></ellipse>
                <ellipse id="Oval-4" cx="40.5" cy="30.5" rx="6.5" ry="6.5"></ellipse>
                <ellipse id="Oval-7" cx="27.5" cy="34.5" rx="3.5" ry="3.5"></ellipse>
                <ellipse id="Oval-4" transform="translate(9.593874, 13.393707) rotate(-145.000000) translate(-9.593874, -13.393707) " cx="9.59387443" cy="13.3937067" rx="6.5" ry="6.5"></ellipse>
                <ellipse id="Oval-3" transform="translate(15.081513, 22.119291) rotate(-145.000000) translate(-15.081513, -22.119291) " cx="15.0815131" cy="22.119291" rx="10" ry="10.5"></ellipse>
                <ellipse id="Oval-7" transform="translate(25.976915, 24.865235) rotate(-145.000000) translate(-25.976915, -24.865235) " cx="25.9769153" cy="24.8652354" rx="3.5" ry="3.5"></ellipse>
                <ellipse id="Oval-4" transform="translate(12.212781, 32.318329) rotate(-145.000000) translate(-12.212781, -32.318329) " cx="12.2127809" cy="32.318329" rx="6.5" ry="6.5"></ellipse>
                <ellipse id="Oval-4" transform="translate(16.066366, 9.380372) rotate(-145.000000) translate(-16.066366, -9.380372) " cx="16.0663656" cy="9.38037166" rx="6.5" ry="6.5"></ellipse>
                <ellipse id="Oval-7" transform="translate(29.009648, 13.560257) rotate(-145.000000) translate(-29.009648, -13.560257) " cx="29.0096479" cy="13.5602572" rx="3.5" ry="3.5"></ellipse>
            </g>
            <g id="Group-2" transform="translate(121.000000, 116.000000) rotate(22.000000) translate(-121.000000, -116.000000) translate(96.000000, 95.000000)" stroke="#37A5D9" stroke-opacity="0.92" fill="#37A5D9" fill-opacity="0.74">
                <ellipse id="Oval-4" cx="43.5" cy="23.5" rx="6.5" ry="6.5"></ellipse>
                <ellipse id="Oval-3" cx="34" cy="19.5" rx="10" ry="10.5"></ellipse>
                <ellipse id="Oval-7" cx="23.5" cy="23.5" rx="3.5" ry="3.5"></ellipse>
                <ellipse id="Oval-4" cx="30.5" cy="9.5" rx="6.5" ry="6.5"></ellipse>
                <ellipse id="Oval-4" cx="40.5" cy="30.5" rx="6.5" ry="6.5"></ellipse>
                <ellipse id="Oval-7" cx="27.5" cy="34.5" rx="3.5" ry="3.5"></ellipse>
                <ellipse id="Oval-4" transform="translate(9.593874, 13.393707) rotate(-145.000000) translate(-9.593874, -13.393707) " cx="9.59387443" cy="13.3937067" rx="6.5" ry="6.5"></ellipse>
                <ellipse id="Oval-3" transform="translate(15.081513, 22.119291) rotate(-145.000000) translate(-15.081513, -22.119291) " cx="15.0815131" cy="22.119291" rx="10" ry="10.5"></ellipse>
                <ellipse id="Oval-7" transform="translate(25.976915, 24.865235) rotate(-145.000000) translate(-25.976915, -24.865235) " cx="25.9769153" cy="24.8652354" rx="3.5" ry="3.5"></ellipse>
                <ellipse id="Oval-4" transform="translate(12.212781, 32.318329) rotate(-145.000000) translate(-12.212781, -32.318329) " cx="12.2127809" cy="32.318329" rx="6.5" ry="6.5"></ellipse>
                <ellipse id="Oval-4" transform="translate(16.066366, 9.380372) rotate(-145.000000) translate(-16.066366, -9.380372) " cx="16.0663656" cy="9.38037166" rx="6.5" ry="6.5"></ellipse>
                <ellipse id="Oval-7" transform="translate(29.009648, 13.560257) rotate(-145.000000) translate(-29.009648, -13.560257) " cx="29.0096479" cy="13.5602572" rx="3.5" ry="3.5"></ellipse>
            </g>
            <g id="Group-4" transform="translate(10.000000, 0.000000)">
                <polygon id="Path-11" fill="#50E3C2" points="0.504201836 98 48.0432321 98 48.8125 103.392567 0 104.037109"></polygon>
                <path d="M22.3652344,1.41210937 C4.47460938,4.88671875 0.869140625,11.7695312 0.869140625,11.7695312 L2.22044605e-16,27.7070312 L0.3046875,55.546875 L0.8046875,88.8789062 C0.8046875,88.8789062 0.154296875,97.3066406 2.54296875,97.3066406 C4.93164063,97.3066406 16.3378906,98 16.3378906,98 L33.2792969,97.8261719 L48.2910156,97.4785156 L48.8125,54.75 L48.1386719,27.1914062 L48.6386719,12.3125 C48.6386719,12.3125 40.2558594,-2.0625 22.3652344,1.41210937 Z" id="Path-7" fill="#F8E81C"></path>
                <polygon id="Path-11" fill="#50E3C2" points="0.504201836 94 48.0432321 94 48.8125 99.392567 0 100.037109"></polygon>
            </g>
            <g id="Group-4" transform="translate(91.000000, 0.000000)">
                <polygon id="Path-11" fill="#50E3C2" points="0.504201836 98 48.0432321 98 48.8125 103.392567 0 104.037109"></polygon>
                <path d="M22.3652344,1.41210937 C4.47460938,4.88671875 0.869140625,11.7695312 0.869140625,11.7695312 L2.22044605e-16,27.7070312 L0.3046875,55.546875 L0.8046875,88.8789062 C0.8046875,88.8789062 0.154296875,97.3066406 2.54296875,97.3066406 C4.93164063,97.3066406 16.3378906,98 16.3378906,98 L33.2792969,97.8261719 L48.2910156,97.4785156 L48.8125,54.75 L48.1386719,27.1914062 L48.6386719,12.3125 C48.6386719,12.3125 40.2558594,-2.0625 22.3652344,1.41210937 Z" id="Path-7" fill="#F8E81C"></path>
                <polygon id="Path-11" fill="#50E3C2" points="0.504201836 94 48.0432321 94 48.8125 99.392567 0 100.037109"></polygon>
            </g>
        </g>
    </g>
</svg>