<?xml version="1.0" encoding="UTF-8" standalone="no"?>
<svg width="161px" height="284px" viewBox="0 0 161 284" version="1.1" xmlns="http://www.w3.org/2000/svg" xmlns:xlink="http://www.w3.org/1999/xlink">
    <!-- Generator: Sketch 3.7.1 (28215) - http://www.bohemiancoding.com/sketch -->
    <title>Slice 1</title>
    <desc>Created with Sketch.</desc>
    <defs></defs>
    <g id="Catonaut" stroke="none" stroke-width="1" fill="none" fill-rule="evenodd">
        <g id="Group">
            <path d="M39.7533033,29.7332322 L52.1688761,0 L63.7172378,29.7332322 C63.7172378,29.7332322 58.3203994,31.883858 86.1733606,28.4530907 C89.2642923,28.0723675 98.3016478,27.0967637 96.3982459,27.5724434 C95.7041395,27.7459078 101.621591,27.5724434 101.621591,27.5724434 L118.293725,0.260851978 L134.203436,25.0223233 C134.203436,25.0223233 144.61342,32.6390643 152.230588,48.2615093 C159.847756,63.8839543 162.659563,84.1432967 159.786165,96.3244596 C156.912767,108.505623 151.731234,142.50629 134.203434,145.859082 C116.675634,149.211874 114.518649,155 91.0786551,155 C67.6386607,155 49.6032366,148.486731 39.753303,145.859082 C29.9033694,143.231434 18.455105,136.017294 9.80561256,119.513032 C1.1561201,103.008771 0.883380667,87.5224498 0.204862052,77.0428264 C-0.473656562,66.5632031 0.0233082614,58.8978462 9.80561232,48.2615093 C19.5879164,37.6251723 39.7533033,29.7332322 39.7533033,29.7332322 Z" id="Path-1" fill="#D8D8D8"></path>
            <ellipse id="Oval-1" fill="#6D6C6C" cx="40" cy="64.5" rx="4" ry="4.5"></ellipse>
            <path d="M107,69 C109.209139,69 111,66.9852814 111,64.5 C111,62.0147186 109.209139,60 107,60 C104.790861,60 103,62.0147186 103,64.5 C103,66.9852814 104.790861,69 107,69 Z" id="Oval-1" fill="#656565"></path>
            <polygon id="Triangle-1" fill="#9C9C9C" transform="translate(72.500000, 88.500000) rotate(179.000000) translate(-72.500000, -88.500000) " points="72.5 80 78 97 67 97"></polygon>
            <path d="M75.5,88.5 L117.5,82.5" id="Line" stroke="#979797" stroke-linecap="square"></path>
            <path d="M75.5,90.5 L118.5,96.5" id="Line" stroke="#979797" stroke-linecap="square"></path>
            <path d="M30.5,98.5 L70.5,90.5" id="Line" stroke="#979797" stroke-linecap="square"></path>
            <path d="M33.5,82.5 L68.5,87.5" id="Line" stroke="#979797" stroke-linecap="square"></path>
            <path d="M61.5573429,172.718292 L63.4854688,208.648438 C63.4854688,208.648438 63.3985547,242.291016 62.2589063,257.241211 C61.1192578,272.191406 65.8272657,279.990234 65.8272657,279.990234 C65.8272657,279.990234 75.7939453,282.411133 79.4101562,279.990234 C83.0263672,277.569336 84.5655469,247.625977 84.5655469,247.625977 C84.5655469,247.625977 88.9982813,241.286133 95.3126172,241.286133 C101.626953,241.286133 103.705078,247.625977 103.705078,247.625977 L105.800898,275.558594 C105.800898,275.558594 109.673945,285.349609 119.001094,282.669922 C128.328242,279.990234 128.0675,251.53418 128.0675,251.53418 L128.761836,234.999023 L129.446406,210.679688 L129.446404,177.208984 C129.446404,177.208984 142.377815,192.630859 144.833984,197.773438 C147.290154,202.916016 155.073242,201.902344 158.560547,201.902344 C162.047852,201.902344 160.585938,189.067383 160.585938,189.067383 L151.476562,177.208984 L142.21875,163.429688 L125.716797,147.646484 L99.3419141,154 L82.418086,154.413086 L62.2589073,151.091797 C62.2589073,151.091797 56.6540704,153.408819 55.0703125,154.413086 C51.6016221,156.612595 47.1015625,160.703125 47.1015625,160.703125 L36.2871094,172.718292 L25.97375,189.067383 C25.97375,189.067383 21.3272656,194.641602 23.6505078,199.24707 C25.9737501,203.852539 35.0538282,198.902344 35.0538282,198.902344 L49.5645703,186.008789 L61.5573429,172.718292 Z" id="Path-9" fill="#D8D8D8"></path>
        </g>
    </g>
</svg>